<?xml version="1.0" encoding="UTF-8"?>
<svg xmlns="http://www.w3.org/2000/svg" version="1.1" width="500px" height="500px" style="shape-rendering:geometricPrecision; text-rendering:geometricPrecision; image-rendering:optimizeQuality; fill-rule:evenodd; clip-rule:evenodd" xmlns:xlink="http://www.w3.org/1999/xlink">
<g><path style="opacity:0.995" fill="#f9b300" d="M 77.5,23.5 C 141.834,23.3333 206.168,23.5 270.5,24C 310.639,24.5984 346.306,37.265 377.5,62C 403.473,86.1145 418.14,115.948 421.5,151.5C 426.31,233.142 389.643,285.309 311.5,308C 300.964,310.505 290.297,312.172 279.5,313C 248.835,313.5 218.168,313.667 187.5,313.5C 187.5,367.5 187.5,421.5 187.5,475.5C 150.833,475.5 114.167,475.5 77.5,475.5C 77.5,324.833 77.5,174.167 77.5,23.5 Z M 187.5,113.5 C 211.169,113.333 234.836,113.5 258.5,114C 291.837,117.503 308.504,136.003 308.5,169.5C 308.371,203.464 291.371,221.964 257.5,225C 234.169,225.5 210.836,225.667 187.5,225.5C 187.5,188.167 187.5,150.833 187.5,113.5 Z"/></g>
</svg>
